<svg width="44" height="44" viewBox="0 0 44 44" fill="none" xmlns="http://www.w3.org/2000/svg">
<circle cx="22" cy="22" r="22" fill="url(#paint0_linear)"/>
<path d="M20.6601 8.51343C21.3286 8.16219 22.3458 8.16219 23.0143 8.51343L29.8358 12.0975C30.2384 12.309 30.4595 12.6242 30.4991 12.9496L30.5056 12.9496V30.9649C30.4967 31.3199 30.2735 31.6725 29.8358 31.9025L23.0143 35.4866C22.3458 35.8378 21.3286 35.8378 20.6601 35.4866L13.8387 31.9025C13.4028 31.6735 13.1936 31.3184 13.1832 30.9649C13.1822 30.9302 13.182 30.9013 13.183 30.8772L13.183 13.0654C13.1823 13.0458 13.1822 13.0264 13.1828 13.007L13.1832 12.9496L13.1862 12.9496C13.2166 12.6206 13.4276 12.3135 13.8387 12.0975L20.6601 8.51343ZM29.4317 23.0003L23.0143 26.3721C22.3458 26.7234 21.3286 26.7234 20.6601 26.3721L14.2568 23.0078V30.9293L20.6601 34.276C21.0217 34.4682 21.397 34.6556 21.764 34.6794L21.8372 34.6819C22.2196 34.6832 22.5908 34.49 22.9673 34.3072L29.4317 30.9005V23.0003ZM12.0737 30.5733C12.0737 31.2635 12.1543 31.7172 12.3145 32.0368C12.4472 32.3017 12.6463 32.5042 13.0099 32.7505L13.0306 32.7645C13.1104 32.818 13.1983 32.8741 13.3053 32.9399L13.4315 33.0168L13.819 33.2494L13.2632 34.1633L12.8296 33.9028L12.7567 33.8583C12.6313 33.7813 12.5274 33.7151 12.4304 33.6501C11.3942 32.9552 11.0077 32.1975 11.0001 30.6213L11 30.5733H12.0737ZM21.3002 18.1717C21.2506 18.1886 21.204 18.2083 21.1616 18.2305L14.3402 21.8146C14.333 21.8184 14.3262 21.8221 14.3197 21.8258L14.3139 21.8291L14.3246 21.8352L14.3402 21.8436L21.1616 25.4277C21.204 25.45 21.2506 25.4696 21.3002 25.4865V18.1717ZM22.3743 18.1717V25.4865C22.4239 25.4696 22.4704 25.45 22.5129 25.4277L29.3343 21.8436C29.3415 21.8398 29.3483 21.8361 29.3548 21.8324L29.3606 21.8291L29.3499 21.823L29.3343 21.8146L22.5129 18.2305C22.4704 18.2083 22.4239 18.1886 22.3743 18.1717ZM29.4317 14.2276L23.3125 17.4427L29.4317 20.6579V14.2276ZM14.2568 14.2351V20.6504L20.3618 17.4427L14.2568 14.2351ZM22.5129 9.45789C22.1581 9.2715 21.5163 9.2715 21.1616 9.45789L14.3402 13.042C14.333 13.0457 14.3262 13.0494 14.3197 13.0531L14.3139 13.0564L14.3246 13.0625L14.3402 13.0709L21.1616 16.655C21.5163 16.8414 22.1581 16.8414 22.5129 16.655L29.3343 13.0709C29.3415 13.0672 29.3483 13.0635 29.3548 13.0598L29.3606 13.0564L29.3499 13.0503L29.3343 13.042L22.5129 9.45789ZM30.4399 9.85092L30.8735 10.1115L30.9464 10.156C31.0718 10.233 31.1757 10.2991 31.2727 10.3641C32.3089 11.0591 32.6954 11.8168 32.703 13.3929L32.7031 13.441H31.6294C31.6294 12.7507 31.5488 12.297 31.3886 11.9774C31.2559 11.7125 31.0568 11.5101 30.6932 11.2638L30.6725 11.2498C30.5927 11.1962 30.5048 11.1402 30.3978 11.0743L30.2716 10.9974L29.8842 10.7648L30.4399 9.85092Z" fill="#F4F5FB"/>
<defs>
<linearGradient id="paint0_linear" x1="39.5" y1="-2.27683e-06" x2="-4" y2="44" gradientUnits="userSpaceOnUse">
<stop stop-color="#1969FF"/>
<stop offset="1" stop-color="#5B5BFF"/>
</linearGradient>
</defs>
</svg>
