<svg width="24" height="24" viewBox="0 0 24 24" fill="none" xmlns="http://www.w3.org/2000/svg">
<path d="M12 18.2962C15.4774 18.2962 18.2963 15.4773 18.2963 12C18.2963 8.52261 15.4774 5.70367 12 5.70367C8.52268 5.70367 5.70373 8.52261 5.70373 12C5.70373 15.4773 8.52268 18.2962 12 18.2962Z" fill="#FFC554"/>
<path d="M12 4.40737C12.3704 4.40737 12.7408 4.1296 12.7408 3.66663V2.74071C12.7408 2.37034 12.463 1.99997 12 1.99997C11.5371 1.99997 11.2593 2.37034 11.2593 2.74071V3.66663C11.2593 4.037 11.6297 4.40737 12 4.40737Z" fill="#FFC554"/>
<path d="M12 19.5925C11.6297 19.5925 11.2593 19.8703 11.2593 20.3333V21.2592C11.2593 21.6296 11.5371 21.9999 12 21.9999C12.463 21.9999 12.7408 21.7222 12.7408 21.2592V20.3333C12.7408 19.9629 12.3704 19.5925 12 19.5925Z" fill="#FFC554"/>
<path d="M21.2593 11.2592H20.3333C19.963 11.2592 19.5926 11.537 19.5926 12C19.5926 12.4629 19.8704 12.7407 20.3333 12.7407H21.2593C21.6296 12.7407 22 12.4629 22 12C22 11.537 21.6296 11.2592 21.2593 11.2592Z" fill="#FFC554"/>
<path d="M3.6667 11.2592H2.74077C2.3704 11.2592 2.00003 11.537 2.00003 12C2.00003 12.4629 2.27781 12.7407 2.74077 12.7407H3.6667C4.03707 12.7407 4.40744 12.4629 4.40744 12C4.40744 11.537 4.03707 11.2592 3.6667 11.2592Z" fill="#FFC554"/>
<path d="M18.0185 4.96302L17.3704 5.61117C17.0926 5.88894 17.0926 6.35191 17.3704 6.62968C17.463 6.72228 17.6482 6.81487 17.8333 6.81487C18.0185 6.81487 18.2037 6.72228 18.2963 6.62968L18.9445 5.98154C19.2222 5.70376 19.2222 5.2408 18.9445 4.96302C18.6667 4.68524 18.2963 4.68524 18.0185 4.96302Z" fill="#FFC554"/>
<path d="M5.61111 17.3703L4.96297 18.0185C4.68519 18.2962 4.68519 18.7592 4.96297 19.037C5.05556 19.1296 5.24075 19.2222 5.42593 19.2222C5.61112 19.2222 5.7963 19.1296 5.88889 19.037L6.53704 18.3888C6.81482 18.1111 6.81482 17.6481 6.53704 17.3703C6.35186 17.0925 5.88889 17.0925 5.61111 17.3703Z" fill="#FFC554"/>
<path d="M18.3889 17.3703C18.1111 17.0925 17.6482 17.0925 17.3704 17.3703C17.0926 17.6481 17.0926 18.1111 17.3704 18.3888L18.0185 19.037C18.1111 19.1296 18.2963 19.2222 18.4815 19.2222C18.6667 19.2222 18.8519 19.1296 18.9445 19.037C19.2222 18.7592 19.2222 18.2962 18.9445 18.0185L18.3889 17.3703Z" fill="#FFC554"/>
<path d="M5.61111 6.62968C5.70371 6.72228 5.88889 6.81487 6.07408 6.81487C6.25926 6.81487 6.44445 6.72228 6.62963 6.62968C6.90741 6.35191 6.90741 5.88894 6.62963 5.61117L5.98149 4.96302C5.70371 4.68524 5.24075 4.68524 4.96297 4.96302C4.68519 5.2408 4.68519 5.70376 4.96297 5.98154L5.61111 6.62968Z" fill="#FFC554"/>
</svg>
