<svg width="13" height="16" viewBox="0 0 13 16" fill="none" xmlns="http://www.w3.org/2000/svg">
<path d="M12.1436 4.10587L8.77949 0.660668C8.36923 0.250526 7.79487 0.00444029 7.13846 0.00444029H2.29744C1.06667 -0.0775882 0 0.988782 0 2.21921V13.7032C0 14.9336 0.984615 16 2.29744 16H10.5026C11.7333 16 12.8 15.0157 12.8 13.7032V5.66441C12.8 5.09021 12.5538 4.51601 12.1436 4.10587ZM3.93846 6.48469H6.4C6.72821 6.48469 7.05641 6.73078 7.05641 7.14092C7.05641 7.55106 6.81026 7.79715 6.4 7.79715H3.93846C3.61026 7.79715 3.28205 7.55106 3.28205 7.14092C3.28205 6.73078 3.61026 6.48469 3.93846 6.48469ZM8.86154 11.0783H3.93846C3.61026 11.0783 3.28205 10.8322 3.28205 10.4221C3.28205 10.0119 3.52821 9.76583 3.93846 9.76583H8.86154C9.18974 9.76583 9.51795 10.0119 9.51795 10.4221C9.51795 10.8322 9.18974 11.0783 8.86154 11.0783Z" fill="#B1BBCE"/>
</svg>
