<svg width="16" height="16" viewBox="0 0 16 16" fill="none" xmlns="http://www.w3.org/2000/svg">
<path d="M5.66152 0.328204C5.08717 0.164102 4.1846 0 3.5282 0C2.87179 0 1.96923 0.164102 1.39487 0.328204C0.820511 0.410255 0.410255 0.82051 0.328204 1.39487C0.164102 1.96923 0 2.87179 0 3.5282C0 4.1846 0.164102 5.08717 0.246153 5.66152C0.328204 6.23588 0.82051 6.64613 1.31282 6.72819C1.88717 6.81024 2.78974 6.97434 3.44614 6.97434C4.10255 6.97434 5.00511 6.81024 5.57947 6.72819C6.15383 6.64613 6.56408 6.15383 6.64614 5.66152C6.72819 5.08717 6.89229 4.1846 6.89229 3.5282C6.89229 2.87179 6.72819 1.96923 6.64614 1.39487C6.64614 0.82051 6.23588 0.410255 5.66152 0.328204Z" fill="#B1BBCE"/>
<path d="M5.66148 9.35386C5.08713 9.27181 4.18456 9.10771 3.52816 9.10771C2.87175 9.10771 1.96919 9.27181 1.39483 9.35386C0.820471 9.43591 0.410215 9.92822 0.328164 10.4205C0.246113 10.9949 0.0820112 11.8974 0.0820112 12.5539C0.0820112 13.2103 0.246113 14.1128 0.328164 14.6872C0.410215 15.2615 0.902522 15.6718 1.39483 15.7538C1.96919 15.8359 2.87175 16 3.52816 16C4.18456 16 5.08713 15.8359 5.66148 15.7538C6.23584 15.6718 6.6461 15.1795 6.72815 14.6872C6.8102 14.1128 6.9743 13.2103 6.9743 12.5539C6.9743 11.8974 6.8102 10.9949 6.72815 10.4205C6.6461 9.84617 6.23584 9.43591 5.66148 9.35386Z" fill="#B1BBCE"/>
<path d="M10.4204 6.72834C10.9948 6.81039 11.8973 6.97449 12.5538 6.97449C13.2102 6.97449 14.1127 6.81039 14.6871 6.72834C15.2614 6.64629 15.6717 6.15398 15.7537 5.66168C15.8358 5.08732 15.9999 4.18476 15.9999 3.52835C15.9999 2.87194 15.8358 1.96938 15.7537 1.39502C15.6717 0.820665 15.1794 0.41041 14.6871 0.328359C14.1127 0.246308 13.2102 0.0822055 12.5538 0.0822055C11.8973 0.0822055 10.9948 0.246308 10.4204 0.328359C9.84607 0.41041 9.43582 0.902716 9.35377 1.39502C9.27172 1.96938 9.10761 2.87194 9.10761 3.52835C9.10761 4.18476 9.27172 5.08732 9.35377 5.66168C9.43582 6.23603 9.84607 6.64629 10.4204 6.72834Z" fill="#B1BBCE"/>
<path d="M14.6871 9.35386C14.1127 9.27181 13.2102 9.10771 12.5538 9.10771C11.8973 9.10771 10.9948 9.27181 10.4204 9.35386C9.84607 9.43591 9.43582 9.92822 9.35377 10.4205C9.27172 10.9949 9.10761 11.8974 9.10761 12.5539C9.10761 13.2103 9.27172 14.1128 9.35377 14.6872C9.43582 15.2615 9.92812 15.6718 10.4204 15.7538C10.9948 15.8359 11.8973 16 12.5538 16C13.2102 16 14.1127 15.8359 14.6871 15.7538C15.2614 15.6718 15.6717 15.1795 15.7537 14.6872C15.8358 14.1128 15.9999 13.2103 15.9999 12.5539C15.9999 11.8974 15.8358 10.9949 15.7537 10.4205C15.6717 9.84617 15.2614 9.43591 14.6871 9.35386Z" fill="#B1BBCE"/>
</svg>
