<svg version="1.1" xmlns="http://www.w3.org/2000/svg" width="33" height="32" viewBox="0 0 33 32" fill="#FFFFFF">
<title>discord-alt</title>
<path d="M20.608 15.168c-1.312 0-2.368 1.152-2.368 2.592 0 1.408 1.056 2.56 2.368 2.56 1.344 0 2.4-1.152 2.4-2.56 0-1.44-1.056-2.592-2.4-2.592zM12.128 15.168c-1.312 0-2.4 1.152-2.4 2.592 0 1.408 1.088 2.56 2.4 2.56s2.368-1.152 2.368-2.56c0-1.44-1.056-2.592-2.368-2.592zM22.848 25.792c0 0-0.832-1.024-1.536-1.888 3.072-0.864 4.224-2.784 4.224-2.784-0.96 0.64-1.888 1.088-2.688 1.376-1.184 0.48-2.304 0.832-3.392 1.024-2.24 0.416-4.288 0.32-6.048 0-1.344-0.256-2.496-0.64-3.424-1.024-0.544-0.192-1.12-0.448-1.728-0.8-0.064-0.032-0.128-0.064-0.192-0.128-0.064 0-0.096-0.032-0.128-0.032-0.416-0.256-0.64-0.416-0.64-0.416s1.12 1.856 4.096 2.752c-0.704 0.896-1.568 1.92-1.568 1.92-5.152-0.16-7.104-3.552-7.104-3.552 0-7.52 3.36-13.6 3.36-13.6 3.36-2.528 6.528-2.432 6.528-2.432l0.256 0.256c-4.224 1.216-6.144 3.072-6.144 3.072s0.512-0.288 1.408-0.672c2.496-1.088 4.448-1.376 5.28-1.472 0.128 0 0.256-0.032 0.384-0.064 1.44-0.16 3.040-0.224 4.736-0.032 2.208 0.256 4.576 0.928 7.008 2.24 0 0-1.824-1.76-5.792-2.976l0.32-0.352c0 0 3.168-0.096 6.528 2.432 0 0 3.36 6.080 3.36 13.6 0 0-1.952 3.392-7.104 3.552z"></path>
</svg>
