<svg width="16" height="16" viewBox="0 0 16 16" fill="none" xmlns="http://www.w3.org/2000/svg">
<path d="M8 0C12.4082 0 16 3.59184 16 8C16 12.4082 12.4082 16 8 16C3.59184 16 0 12.4082 0 8C0 3.59184 3.59184 0 8 0ZM7.34694 10.8571C7.34694 11.1837 7.59184 11.5102 8 11.5102C8.40816 11.5102 8.65306 11.2653 8.65306 10.8571V7.59184C8.65306 7.26531 8.40816 6.93878 8 6.93878C7.59184 6.93878 7.34694 7.18367 7.34694 7.59184V10.8571ZM8 5.95918C8.40816 5.95918 8.81633 5.55102 8.81633 5.14286C8.81633 4.73469 8.40816 4.32653 8 4.32653C7.59184 4.32653 7.18367 4.73469 7.18367 5.14286C7.18367 5.55102 7.59184 5.95918 8 5.95918Z" fill="#1969FF"/>
</svg>
