<svg width="16" height="16" viewBox="0 0 16 16" fill="none" xmlns="http://www.w3.org/2000/svg">
<path d="M8 16C12.4082 16 16 12.4082 16 8C16 3.59184 12.4082 0 8 0C3.59184 0 0 3.59184 0 8C0 12.4082 3.59184 16 8 16ZM7.34694 5.14286C7.34694 4.81633 7.59184 4.48979 8 4.48979C8.40816 4.48979 8.65306 4.73469 8.65306 5.14286V8.40816C8.65306 8.73469 8.40816 9.06122 8 9.06122C7.59184 9.06122 7.34694 8.81633 7.34694 8.40816V5.14286ZM8 10.0408C8.40816 10.0408 8.81633 10.449 8.81633 10.8571C8.81633 11.2653 8.40816 11.6735 8 11.6735C7.59184 11.6735 7.18367 11.2653 7.18367 10.8571C7.18367 10.449 7.59184 10.0408 8 10.0408Z" fill="#FF395D"/>
</svg>
