<svg width="44" height="44" viewBox="0 0 44 44" fill="none" xmlns="http://www.w3.org/2000/svg">
<rect width="44" height="44" rx="12" fill="#161A1F"/>
<path fill-rule="evenodd" clip-rule="evenodd" d="M14.54 12H17.92C19.33 12 20.46 13.15 20.46 14.561V17.97C20.46 19.39 19.33 20.53 17.92 20.53H14.54C13.14 20.53 12 19.39 12 17.97V14.561C12 13.15 13.14 12 14.54 12ZM14.54 23.4697H17.92C19.33 23.4697 20.46 24.6107 20.46 26.0307V29.4397C20.46 30.8497 19.33 31.9997 17.92 31.9997H14.54C13.14 31.9997 12 30.8497 12 29.4397V26.0307C12 24.6107 13.14 23.4697 14.54 23.4697ZM29.4601 12H26.0801C24.6701 12 23.5401 13.15 23.5401 14.561V17.97C23.5401 19.39 24.6701 20.53 26.0801 20.53H29.4601C30.8601 20.53 32.0001 19.39 32.0001 17.97V14.561C32.0001 13.15 30.8601 12 29.4601 12ZM26.0801 23.4697H29.4601C30.8601 23.4697 32.0001 24.6107 32.0001 26.0307V29.4397C32.0001 30.8497 30.8601 31.9997 29.4601 31.9997H26.0801C24.6701 31.9997 23.5401 30.8497 23.5401 29.4397V26.0307C23.5401 24.6107 24.6701 23.4697 26.0801 23.4697Z" fill="white"/>
</svg>
