<svg width="44" height="44" viewBox="0 0 44 44" fill="none" xmlns="http://www.w3.org/2000/svg">
<rect width="44" height="44" rx="12" fill="#161A1F"/>
<path fill-rule="evenodd" clip-rule="evenodd" d="M22.3264 12.2097C22.4861 12.0663 22.6973 11.9912 22.9135 12.0008C27.4843 12.1377 31.3044 15.4558 31.9967 19.8906C32.0011 19.9171 32.0011 19.9441 31.9967 19.9706C32.0116 20.1804 31.9407 20.3874 31.7996 20.5458C31.6586 20.7043 31.459 20.801 31.2451 20.8147L23.5656 21.3211C23.3116 21.3436 23.0597 21.26 22.8718 21.0909C22.6839 20.9218 22.5774 20.6828 22.5785 20.4326L22.0623 12.8893V12.7649C22.0717 12.5528 22.1667 12.353 22.3264 12.2097ZM21.7997 23.2936L28.4558 22.8671L28.5011 22.8848C28.7869 22.8895 29.0591 23.0054 29.2579 23.207C29.4566 23.4087 29.5655 23.6795 29.5606 23.9599C29.2984 27.782 26.4962 30.9755 22.6828 31.7982C18.8694 32.621 14.9602 30.8754 13.0878 27.5139C12.5372 26.5457 12.1893 25.4794 12.0645 24.3775C12.016 24.051 11.9948 23.7212 12.0011 23.3913C12.0137 19.3271 14.9073 15.8191 18.9561 14.9595C19.4462 14.8678 19.9376 15.1125 20.1515 15.5548C20.2047 15.6351 20.2473 15.7216 20.2782 15.8125C20.3541 16.984 20.4329 18.1445 20.5113 19.3002C20.5732 20.2128 20.6349 21.1223 20.6948 22.0319C20.6917 22.2462 20.7254 22.4594 20.7944 22.6627C20.9569 23.0627 21.3614 23.3165 21.7997 23.2936Z" fill="white"/>
</svg>
