<svg width="44" height="44" viewBox="0 0 44 44" fill="none" xmlns="http://www.w3.org/2000/svg">
<rect width="44" height="44" rx="12" fill="#161A1F"/>
<path fill-rule="evenodd" clip-rule="evenodd" d="M21.7281 31.9137C21.8388 31.9715 21.9627 32.0009 22.0865 32C22.2103 31.999 22.3331 31.9686 22.4449 31.9097L26.0128 30.0025C27.0245 29.4631 27.8168 28.8601 28.435 28.1579C29.779 26.6282 30.5129 24.6758 30.4998 22.6626L30.4575 16.022C30.4535 15.2571 29.9511 14.5746 29.2082 14.3265L22.5707 12.0996C22.1711 11.9642 21.7331 11.9672 21.3405 12.1064L14.7282 14.4128C13.9893 14.6707 13.496 15.3581 13.5 16.124L13.5423 22.7597C13.5554 24.7758 14.3145 26.7194 15.6806 28.2335C16.3048 28.9258 17.1041 29.52 18.127 30.0505L21.7281 31.9137ZM20.7836 24.1089C20.9326 24.2521 21.1259 24.3227 21.3192 24.3207C21.5125 24.3198 21.7047 24.2472 21.8517 24.1021L25.7508 20.2581C26.0438 19.9688 26.0408 19.504 25.7448 19.2187C25.4478 18.9333 24.9696 18.9353 24.6766 19.2245L21.3081 22.5449L19.9289 21.2191C19.6319 20.9337 19.1547 20.9367 18.8607 21.226C18.5677 21.5152 18.5708 21.98 18.8678 22.2654L20.7836 24.1089Z" fill="white"/>
</svg>
